<svg width="32" height="33" viewBox="0 0 32 33" fill="none" xmlns="http://www.w3.org/2000/svg">
<path d="M29.0961 10.408C28.9734 10.2308 28.8097 10.0859 28.6188 9.98582C28.4279 9.88573 28.2156 9.83341 28.0001 9.83334H9.77742L8.23875 6.14001C8.037 5.65363 7.69537 5.23812 7.25718 4.94615C6.81899 4.65418 6.30397 4.49891 5.77742 4.50001H2.66675V7.16667H5.77742L12.1027 22.3467C12.2041 22.5895 12.375 22.797 12.594 22.9429C12.813 23.0888 13.0703 23.1667 13.3334 23.1667H24.0001C24.5561 23.1667 25.0534 22.8213 25.2494 22.3027L29.2494 11.636C29.325 11.4342 29.3506 11.217 29.3238 11.0031C29.2971 10.7893 29.219 10.5851 29.0961 10.408Z" fill="#143D81"/>
<path d="M14 28.5C15.1046 28.5 16 27.6046 16 26.5C16 25.3954 15.1046 24.5 14 24.5C12.8954 24.5 12 25.3954 12 26.5C12 27.6046 12.8954 28.5 14 28.5Z" fill="#143D81"/>
<path d="M23.3333 28.5C24.4378 28.5 25.3333 27.6046 25.3333 26.5C25.3333 25.3954 24.4378 24.5 23.3333 24.5C22.2287 24.5 21.3333 25.3954 21.3333 26.5C21.3333 27.6046 22.2287 28.5 23.3333 28.5Z" fill="#143D81"/>
</svg>
