<svg width="24" height="25" viewBox="0 0 24 25" fill="none" xmlns="http://www.w3.org/2000/svg">
<path d="M22.4994 3.06665H1.49944C1.38158 3.06665 1.28516 3.16308 1.28516 3.28094V4.99522C1.28516 5.11308 1.38158 5.20951 1.49944 5.20951H22.4994C22.6173 5.20951 22.7137 5.11308 22.7137 4.99522V3.28094C22.7137 3.16308 22.6173 3.06665 22.4994 3.06665ZM22.4994 19.7809H1.49944C1.38158 19.7809 1.28516 19.8774 1.28516 19.9952V21.7095C1.28516 21.8274 1.38158 21.9238 1.49944 21.9238H22.4994C22.6173 21.9238 22.7137 21.8274 22.7137 21.7095V19.9952C22.7137 19.8774 22.6173 19.7809 22.4994 19.7809ZM22.4994 11.4238H1.49944C1.38158 11.4238 1.28516 11.5202 1.28516 11.6381V13.3524C1.28516 13.4702 1.38158 13.5667 1.49944 13.5667H22.4994C22.6173 13.5667 22.7137 13.4702 22.7137 13.3524V11.6381C22.7137 11.5202 22.6173 11.4238 22.4994 11.4238Z" fill="#143D81"/>
</svg>
