<svg width="38" height="33" viewBox="0 0 38 33" fill="none" xmlns="http://www.w3.org/2000/svg">
<path d="M33.8944 16.304L32.2179 19.2162H35.5708L33.8944 16.304Z" fill="black"/>
<path d="M33.8944 16.8298C34.3773 16.8298 34.7688 16.4371 34.7688 15.9527C34.7688 15.4683 34.3773 15.0757 33.8944 15.0757C33.4115 15.0757 33.02 15.4683 33.02 15.9527C33.02 16.4371 33.4115 16.8298 33.8944 16.8298Z" fill="black"/>
<path d="M33.5442 11.6377V15.2864H34.2446V11.5675L33.5442 11.6377Z" fill="black"/>
<path d="M18.6814 0.900024L0 11.4972C0 11.4972 11.8939 10.6553 18.6814 19.1471C26.7275 10.7256 37.6419 11.4972 37.6419 11.4972L18.6814 0.900024Z" fill="black"/>
<path d="M18.5413 2.65412L4.89743 10.304C4.89743 10.304 7.41677 10.6553 8.88541 11.2864C10.075 10.585 21.2697 4.12836 21.2697 4.12836L18.5413 2.65412Z" fill="#3B6FC2"/>
<path d="M18.2612 7.70682L23.0885 4.97028L32.3942 10.2337C32.3942 10.2337 28.5463 10.7946 24.9775 12.4796C22.2491 9.53234 18.2612 7.70799 18.2612 7.70799V7.70682Z" fill="#34A6E5"/>
<path d="M16.7225 8.61899L10.9856 11.8473C10.9856 11.8473 16.2333 14.304 18.7515 17.0405C20.5704 14.7946 23.719 13.3216 23.719 13.3216C23.719 13.3216 20.1501 9.67286 16.7225 8.62016V8.61899Z" fill="#7EB8E6"/>
<path d="M7.90593 13.8825V24.9703L18.7503 32.9L29.5947 24.8298L29.5246 13.8825C29.5246 13.8825 23.3675 15.496 18.6803 20.9703C13.993 15.4258 7.90593 13.8825 7.90593 13.8825Z" fill="black"/>
<path d="M9.37574 15.9176V24.1986L11.3347 25.6026V16.9C11.3347 16.9 10.5654 16.1284 9.37574 15.9176Z" fill="#34A6E5"/>
<path d="M26.097 25.6026L28.056 24.1986V15.9176C28.056 15.9176 26.9364 16.1284 26.097 16.9V25.6026Z" fill="#34A6E5"/>
<path d="M12.8034 23.1459L12.8734 26.7946L16.5112 29.4609C16.5112 29.4609 16.7913 25.2501 12.8034 23.1448V23.1459Z" fill="#7EB8E6"/>
<path d="M24.5583 26.8649L20.9895 29.5312C20.9895 29.5312 20.5692 25.5312 24.5583 23.1448V26.8649Z" fill="#7EB8E6"/>
<path d="M18.7515 23.1459C18.7515 23.1459 14.6934 18.7244 12.8746 17.8825V21.6014C12.8746 21.6014 18.2623 23.3555 17.9821 30.4434C18.6814 30.9352 18.7515 31.0042 18.7515 31.0042L19.4508 30.4434C19.4508 30.4434 18.9604 24.0569 24.5583 21.5312V17.8825C24.5583 17.8825 21.1296 20.1284 18.7515 23.1459Z" fill="#3B6FC2"/>
<path d="M33.8944 16.8298C34.3773 16.8298 34.7688 16.4371 34.7688 15.9527C34.7688 15.4683 34.3773 15.0757 33.8944 15.0757C33.4115 15.0757 33.02 15.4683 33.02 15.9527C33.02 16.4371 33.4115 16.8298 33.8944 16.8298Z" fill="black"/>
</svg>
