<svg width="273" height="53" viewBox="0 0 273 53" fill="none" xmlns="http://www.w3.org/2000/svg">
<path d="M55.8275 25.5315L53.0662 30.2638H58.5888L55.8275 25.5315Z" fill="black"/>
<path d="M55.8275 26.3858C56.6229 26.3858 57.2677 25.7477 57.2677 24.9606C57.2677 24.1735 56.6229 23.5354 55.8275 23.5354C55.0321 23.5354 54.3872 24.1735 54.3872 24.9606C54.3872 25.7477 55.0321 26.3858 55.8275 26.3858Z" fill="black"/>
<path d="M55.2506 17.9488V23.8779H56.4044V17.8346L55.2506 17.9488Z" fill="black"/>
<path d="M30.7702 0.5L0 17.7204C0 17.7204 19.5905 16.3523 30.7702 30.1515C44.0228 16.4665 62 17.7204 62 17.7204L30.7702 0.5Z" fill="black"/>
<path d="M30.5395 3.35041L8.06656 15.7815C8.06656 15.7815 12.2162 16.3523 14.6352 17.3779C16.5946 16.2381 35.0333 5.74605 35.0333 5.74605L30.5395 3.35041Z" fill="#3B6FC2"/>
<path d="M30.078 11.561L38.0292 7.11417L53.3566 15.6673C53.3566 15.6673 47.0187 16.5787 41.1404 19.3169C36.6466 14.5275 30.078 11.5629 30.078 11.5629V11.561Z" fill="#34A6E5"/>
<path d="M27.5436 13.0433L18.0945 18.2894C18.0945 18.2894 26.7379 22.2815 30.8856 26.7283C33.8815 23.0787 39.0675 20.685 39.0675 20.685C39.0675 20.685 33.1892 14.7559 27.5436 13.0452V13.0433Z" fill="#7EB8E6"/>
<path d="M13.0219 21.5965V39.6142L30.8837 52.5L48.7455 39.3858L48.6301 21.5965C48.6301 21.5965 38.4887 24.2185 30.7683 33.1142C23.0479 24.1044 13.0219 21.5965 13.0219 21.5965Z" fill="black"/>
<path d="M15.4428 24.9035V38.3602L18.6694 40.6417V26.5C18.6694 26.5 17.4022 25.246 15.4428 24.9035Z" fill="#34A6E5"/>
<path d="M42.9845 40.6417L46.2111 38.3602V24.9035C46.2111 24.9035 44.367 25.246 42.9845 26.5V40.6417Z" fill="#34A6E5"/>
<path d="M21.0884 36.6496L21.2038 42.5787L27.1955 46.9114C27.1955 46.9114 27.657 40.0689 21.0884 36.6477V36.6496Z" fill="#7EB8E6"/>
<path d="M40.4501 42.6929L34.5718 47.0256C34.5718 47.0256 33.8795 40.5256 40.4501 36.6477V42.6929Z" fill="#7EB8E6"/>
<path d="M30.8856 36.6496C30.8856 36.6496 24.2016 29.4646 21.2057 28.0965V34.1398C21.2057 34.1398 30.0799 36.9902 29.6184 48.5079C30.7702 49.3071 30.8856 49.4193 30.8856 49.4193L32.0374 48.5079C32.0374 48.5079 31.2298 38.13 40.4501 34.0256V28.0965C40.4501 28.0965 34.8025 31.746 30.8856 36.6496Z" fill="#3B6FC2"/>
<path d="M55.8275 26.3858C56.6229 26.3858 57.2677 25.7477 57.2677 24.9606C57.2677 24.1735 56.6229 23.5354 55.8275 23.5354C55.0321 23.5354 54.3872 24.1735 54.3872 24.9606C54.3872 25.7477 55.0321 26.3858 55.8275 26.3858Z" fill="black"/>
<path d="M107.87 36.5L115.129 16.3709H121.261L128.52 36.5H122.698L118.04 22.2161L113.382 36.5H107.87Z" fill="#143D81"/>
<path d="M136.476 22.5645H131.042C131.353 17.4161 135.506 15.7903 140.164 15.7903C145.016 15.7903 148.897 17.5322 148.897 22.758V36.5H143.463V32.629H143.269C143.269 32.629 142.027 37.0806 136.865 37.0806C133.177 37.0806 130.46 35.3774 130.46 31.6613C130.46 27.9064 133.565 26.2032 136.903 25.3516C140.28 24.5 143.463 24.229 143.463 21.9838C143.463 20.3967 142.299 19.4677 140.164 19.4677C137.835 19.4677 136.554 20.3967 136.476 22.5645ZM143.463 26.358C142.57 27.1709 140.746 27.5967 139.193 27.9838C137.447 28.4097 135.972 29.3 135.972 31.0806C135.972 32.629 137.059 33.5967 138.805 33.5967C142.493 33.5967 143.463 29.3387 143.463 26.358Z" fill="#143D81"/>
<path d="M151.989 26.4355C151.989 20.5516 155.482 15.7903 162.08 15.7903C171.008 15.7903 171.59 23.7258 171.59 23.7258H166.156C166.156 23.7258 165.962 19.8548 162.08 19.8548C158.626 19.8548 157.423 22.7967 157.423 26.4355C157.423 30.0742 158.626 33.0161 162.08 33.0161C165.962 33.0161 166.156 29.1451 166.156 29.1451H171.59C171.59 29.1451 171.008 37.0806 162.08 37.0806C155.482 37.0806 151.989 32.3193 151.989 26.4355Z" fill="#143D81"/>
<path d="M174.498 26.4355C174.498 20.5516 177.991 15.7903 184.59 15.7903C193.517 15.7903 194.099 23.7258 194.099 23.7258H188.665C188.665 23.7258 188.471 19.8548 184.59 19.8548C181.135 19.8548 179.932 22.7967 179.932 26.4355C179.932 30.0742 181.135 33.0161 184.59 33.0161C188.471 33.0161 188.665 29.1451 188.665 29.1451H194.099C194.099 29.1451 193.517 37.0806 184.59 37.0806C177.991 37.0806 174.498 32.3193 174.498 26.4355Z" fill="#143D81"/>
<path d="M209.04 36.5V25.2742C209.04 21.7903 208.341 20.2419 206.206 20.2419C203.878 20.2419 202.635 21.9838 202.635 26.0484V36.5H197.201V16.3709H202.441V19.6613H202.635C202.635 19.6613 203.994 15.7903 208.069 15.7903C211.33 15.7903 213.077 17.3387 213.853 19.7L213.892 19.6613H214.086C214.086 19.6613 215.832 15.7903 219.908 15.7903C224.954 15.7903 226.312 19.4677 226.312 24.1129V36.5H220.878V25.2742C220.878 21.7903 220.18 20.2419 218.045 20.2419C215.716 20.2419 214.474 21.9838 214.474 26.0484V36.5H209.04Z" fill="#143D81"/>
<path d="M229.41 26.4355C229.41 20.5516 232.864 15.7903 239.502 15.7903C246.139 15.7903 249.205 20.5516 249.205 26.4355C249.205 26.9 249.166 27.5967 249.166 27.5967H234.883C235.116 30.6935 236.435 33.0161 239.696 33.0161C242.995 33.0161 243.577 29.9193 243.577 29.9193H249.011C249.011 29.9193 247.847 37.0806 239.502 37.0806C232.709 37.0806 229.41 32.3193 229.41 26.4355ZM239.502 19.8548C236.823 19.8548 235.504 21.6355 235.038 24.1129H243.616C243.267 21.6355 242.18 19.8548 239.502 19.8548Z" fill="#143D81"/>
<path d="M252.303 43.4677V16.3709H257.543V19.0806H257.737C257.737 19.0806 259.484 15.7903 263.947 15.7903C269.769 15.7903 272.68 20.8226 272.68 26.4355C272.68 32.0484 269.769 37.0806 263.947 37.0806C259.678 37.0806 257.931 34.3709 257.931 34.3709H257.737V43.4677H252.303ZM257.543 26.4355C257.543 30.0742 259.095 33.0161 262.395 33.0161C265.694 33.0161 267.246 30.0742 267.246 26.4355C267.246 22.7967 265.694 19.8548 262.395 19.8548C259.095 19.8548 257.543 22.7967 257.543 26.4355Z" fill="#143D81"/>
<path d="M107.195 36.5H101.023L91.3194 23.8032V36.5H85.963V9.4032H91.3194V21.3645L100.635 9.4032H106.806L96.7534 22.5645L107.195 36.5Z" fill="#143D81"/>
</svg>
